<svg width="32" height="32" viewBox="0 0 32 32" fill="none" xmlns="http://www.w3.org/2000/svg">
<path d="M19.4157 5.16797C20.1416 5.16526 20.8505 5.38866 21.444 5.80664C22.0354 6.22319 22.4826 6.81278 22.7253 7.49414L23.1501 8.82031L23.2614 9.16797H25.3337C25.798 9.16794 26.2579 9.26005 26.6862 9.43945C27.1147 9.61897 27.503 9.88269 27.8288 10.2139C28.1546 10.5451 28.4112 10.9377 28.5837 11.3691C28.7561 11.8005 28.8414 12.2621 28.8337 12.7266V23.4014C28.8336 24.3295 28.4645 25.2196 27.8083 25.876C27.152 26.5323 26.2618 26.9013 25.3337 26.9014H6.66666C5.73841 26.9014 4.84843 26.5323 4.19205 25.876C3.53569 25.2196 3.16667 24.3296 3.16666 23.4014V12.7344C3.16674 11.8062 3.53575 10.9161 4.19205 10.2598C4.84842 9.60348 5.73847 9.23438 6.66666 9.23438H8.73795L8.84928 8.88672L9.27409 7.55957C9.50626 6.86414 9.95111 6.2592 10.5456 5.83008C11.1401 5.40096 11.8544 5.16935 12.5876 5.16797H19.4157ZM12.653 6.83496C12.2693 6.83431 11.8947 6.95343 11.5827 7.17676C11.2702 7.40043 11.0358 7.717 10.9128 8.08105L10.9118 8.08496L10.193 10.2686C10.1351 10.441 10.0221 10.5901 9.87174 10.6924C9.72127 10.7947 9.54077 10.8444 9.35905 10.835H6.66666C6.18044 10.835 5.71458 11.0283 5.37077 11.3721C5.02696 11.7159 4.83366 12.1817 4.83366 12.668V23.335C4.83374 23.8211 5.02702 24.2871 5.37077 24.6309C5.71457 24.9746 6.1805 25.168 6.66666 25.168H25.3337C25.8198 25.1679 26.2858 24.9746 26.6296 24.6309C26.9733 24.2871 27.1666 23.8211 27.1667 23.335V12.668C27.1667 12.1818 26.9733 11.7159 26.6296 11.3721C26.2858 11.0283 25.8198 10.835 25.3337 10.835H22.6901C22.5228 10.8269 22.3618 10.7689 22.2282 10.668C22.0952 10.5675 21.9948 10.4293 21.9411 10.2715H21.9421L21.2214 8.08496L21.2204 8.08105L21.1686 7.94727C21.0371 7.63975 20.8239 7.37249 20.5505 7.17676C20.2384 6.95345 19.8639 6.83427 19.4801 6.83496H12.653ZM15.9997 11.835C17.2815 11.835 18.5112 12.3437 19.4176 13.25C20.3241 14.1564 20.8336 15.3861 20.8337 16.668C20.8337 17.6239 20.5503 18.5587 20.0192 19.3535C19.4881 20.1484 18.7325 20.768 17.8493 21.1338C16.9663 21.4994 15.9947 21.5946 15.0573 21.4082C14.1199 21.2217 13.2586 20.7617 12.5827 20.0859C11.9068 19.4101 11.446 18.5488 11.2594 17.6113C11.0729 16.6738 11.169 15.7015 11.5348 14.8184C11.9007 13.9352 12.5203 13.1805 13.3151 12.6494C14.1098 12.1185 15.0439 11.835 15.9997 11.835ZM17.2116 13.7422C16.6331 13.5026 15.9966 13.4404 15.3825 13.5625C14.7682 13.6847 14.2033 13.9858 13.7604 14.4287C13.3177 14.8715 13.0164 15.4358 12.8942 16.0498C12.772 16.6641 12.8352 17.3013 13.0749 17.8799C13.3146 18.4584 13.7202 18.9529 14.2409 19.3008C14.7615 19.6487 15.3735 19.8349 15.9997 19.835C16.8395 19.835 17.6451 19.501 18.2389 18.9072C18.8328 18.3134 19.1667 17.5078 19.1667 16.668C19.1667 16.0419 18.9812 15.4298 18.6335 14.9092C18.2855 14.3884 17.7902 13.9819 17.2116 13.7422Z" fill="black" stroke="black"/>
</svg>
