<svg width="30" height="30" viewBox="0 0 30 30" fill="none" xmlns="http://www.w3.org/2000/svg">
<path d="M7.5 27.5C6.8125 27.5 6.22417 27.2554 5.735 26.7663C5.24583 26.2771 5.00083 25.6883 5 25V5C5 4.3125 5.245 3.72417 5.735 3.235C6.225 2.74583 6.81333 2.50083 7.5 2.5H22.5C23.1875 2.5 23.7763 2.745 24.2663 3.235C24.7563 3.725 25.0008 4.31333 25 5V25C25 25.6875 24.7554 26.2763 24.2663 26.7663C23.7771 27.2563 23.1883 27.5008 22.5 27.5H7.5ZM7.5 25H22.5V5H20V13.75L16.875 11.875L13.75 13.75V5H7.5V25Z" fill="#FF8686"/>
</svg>
