<svg width="26" height="22" viewBox="0 0 26 22" fill="none" xmlns="http://www.w3.org/2000/svg">
<path d="M2.02696 8.77734V18.7773C2.02696 19.3667 2.28386 19.9319 2.74114 20.3487C3.19843 20.7654 3.81864 20.9996 4.46533 20.9996H21.5339C22.1806 20.9996 22.8008 20.7654 23.2581 20.3487C23.7154 19.9319 23.9723 19.3667 23.9723 18.7773V8.77734" stroke="#FF8686" stroke-width="2"/>
<path d="M16.4536 20.9983V14.3316C16.4536 13.7422 16.1967 13.177 15.7394 12.7602C15.2821 12.3435 14.6619 12.1094 14.0152 12.1094H11.5769C10.9302 12.1094 10.31 12.3435 9.85267 12.7602C9.39539 13.177 9.13849 13.7422 9.13849 14.3316V20.9983" stroke="#FF8686" stroke-width="2" stroke-miterlimit="16"/>
<path d="M24.9696 8.07111L22.9043 1.48333C22.8606 1.34405 22.7683 1.22154 22.6414 1.13433C22.5144 1.04712 22.3598 0.999968 22.2008 1H17.2668L17.8459 7.33778C17.8548 7.43964 17.8903 7.5381 17.9492 7.62504C18.0081 7.71198 18.0889 7.7849 18.1848 7.83778C18.6603 8.09667 19.5893 8.57444 20.3148 8.77778C21.5534 9.12556 23.3627 9 24.3941 8.88444C24.4944 8.87263 24.5907 8.84102 24.6761 8.79181C24.7616 8.74261 24.8343 8.67699 24.8891 8.59955C24.9439 8.52211 24.9795 8.4347 24.9934 8.34343C25.0073 8.25216 24.9992 8.15923 24.9696 8.07111Z" stroke="#FF8686" stroke-width="2"/>
<path d="M15.438 8.77778C16.1305 8.58333 17.0083 8.14 17.4984 7.87556C17.6125 7.81339 17.705 7.72319 17.7654 7.6153C17.8258 7.50741 17.8516 7.38619 17.8398 7.26556L17.2668 1H8.73249L8.15947 7.26556C8.14749 7.38637 8.17317 7.50782 8.23356 7.61593C8.29395 7.72403 8.3866 7.81441 8.50084 7.87667C8.99096 8.14 9.86877 8.58333 10.5613 8.77778C12.3815 9.28889 13.6178 9.28889 15.438 8.77778Z" stroke="#FF8686" stroke-width="2"/>
<path d="M3.09497 1.48333L1.02967 8.07222C1.00052 8.1602 0.992727 8.25291 1.00683 8.34391C1.02094 8.4349 1.05661 8.52201 1.11136 8.59919C1.16611 8.67636 1.23864 8.74176 1.32391 8.79082C1.40917 8.83989 1.50513 8.87146 1.60513 8.88333C2.63534 9 4.44583 9.12444 5.68453 8.77778C6.40994 8.57444 7.34018 8.09667 7.81444 7.83889C7.91055 7.7859 7.99142 7.71281 8.05036 7.62566C8.1093 7.53852 8.14461 7.43983 8.15338 7.33778L8.73249 1H3.79844C3.63949 0.999968 3.48485 1.04712 3.35792 1.13433C3.23099 1.22154 3.13869 1.34405 3.09497 1.48333Z" stroke="#FF8686" stroke-width="2"/>
</svg>
