<svg width="20" height="19" viewBox="0 0 20 19" fill="none" xmlns="http://www.w3.org/2000/svg">
<path d="M12.141 16.316C13.3564 12.708 14.6994 11.4063 18.2179 10.4302C14.6994 9.45417 13.3564 8.15243 12.141 4.54445C10.9256 8.15243 9.58264 9.45417 6.0641 10.4302C9.58264 11.4063 10.9256 12.708 12.141 16.316ZM4.03846 7.48734C4.64615 5.68237 5.31765 5.03199 7.07692 4.54445C5.31765 4.05691 4.64615 3.40653 4.03846 1.60156C3.43077 3.40653 2.75927 4.05691 1 4.54445C2.75927 5.03199 3.43077 5.68237 4.03846 7.48734ZM5.55769 17.297C5.86154 16.3945 6.19678 16.0698 7.07692 15.8255C6.19678 15.5813 5.86154 15.2566 5.55769 14.3541C5.25385 15.2566 4.9186 15.5813 4.03846 15.8255C4.9186 16.0698 5.25385 16.3945 5.55769 17.297Z" stroke="url(#paint0_linear_1222_242)" stroke-width="2" stroke-linejoin="round"/>
<defs>
<linearGradient id="paint0_linear_1222_242" x1="9.60897" y1="1.60156" x2="9.60897" y2="17.297" gradientUnits="userSpaceOnUse">
<stop stop-color="#FF7070" stop-opacity="0.692"/>
<stop offset="0.384615" stop-color="#FFC9C9" stop-opacity="0.5"/>
<stop offset="1" stop-color="#FF4444" stop-opacity="0.95"/>
</linearGradient>
</defs>
</svg>
