<svg width="30" height="30" viewBox="0 0 30 30" fill="none" xmlns="http://www.w3.org/2000/svg">
<path d="M23.75 23.75H6.25V6.25H23.75M23.75 3.75H6.25C5.58696 3.75 4.95107 4.01339 4.48223 4.48223C4.01339 4.95107 3.75 5.58696 3.75 6.25V23.75C3.75 24.413 4.01339 25.0489 4.48223 25.5178C4.95107 25.9866 5.58696 26.25 6.25 26.25H23.75C24.413 26.25 25.0489 25.9866 25.5178 25.5178C25.9866 25.0489 26.25 24.413 26.25 23.75V6.25C26.25 5.58696 25.9866 4.95107 25.5178 4.48223C25.0489 4.01339 24.413 3.75 23.75 3.75ZM20.625 20.3125C20.625 18.4375 16.875 17.5 15 17.5C13.125 17.5 9.375 18.4375 9.375 20.3125V21.25H20.625M15 15.3125C15.7459 15.3125 16.4613 15.0162 16.9887 14.4887C17.5162 13.9613 17.8125 13.2459 17.8125 12.5C17.8125 11.7541 17.5162 11.0387 16.9887 10.5113C16.4613 9.98382 15.7459 9.6875 15 9.6875C14.2541 9.6875 13.5387 9.98382 13.0113 10.5113C12.4838 11.0387 12.1875 11.7541 12.1875 12.5C12.1875 13.2459 12.4838 13.9613 13.0113 14.4887C13.5387 15.0162 14.2541 15.3125 15 15.3125Z" fill="#FF8686"/>
</svg>
